# xmcd CD database file
#
# Track frame offsets:
#	150
#	9749
#	24388
#	42675
#	57775
#	71742
#	84950
#	106251
#	119719
#	138140
#	168993
#
# Disc length: 2481 seconds
#
# Revision: 2
# Processed by: cddbd v1.5.1PL0 Copyright (c) Steve Scherf et al.
# Submitted via: CDex 1.51
#
DISCID=9009af0b
DTITLE=Divokej Bill - mezi nima
DYEAR=2003
DGENRE=Country
TTITLE0=Bagdád
TTITLE1=Pocit
TTITLE2=Znamení
TTITLE3=Malování
TTITLE4=Kvùli holkám
TTITLE5=Vokna
TTITLE6=Armáda
TTITLE7=Mrazík
TTITLE8=Kolem tebe
TTITLE9=Kotle
TTITLE10=Na tvý louce zelený
EXTD=YEAR: 2003
EXTT0=
EXTT1=
EXTT2=
EXTT3=
EXTT4=
EXTT5=
EXTT6=
EXTT7=
EXTT8=
EXTT9=
EXTT10=
PLAYORDER=
